<mxfile>
    <diagram id="Ht1M8jgEwFfnCIfOTk4-" name="Page-1">
        <mxGraphModel dx="999" dy="1158" grid="1" gridSize="10" guides="1" tooltips="1" connect="1" arrows="1" fold="1" page="1" pageScale="1" pageWidth="1169" pageHeight="827" background="#ffffff" math="0" shadow="1">
            <root>
                <mxCell id="0"/>
                <mxCell id="1" parent="0"/>
                <mxCell id="-QjtrjUzRDEMRZ5MF8oH-47" value="Event Bridge Shipper and Receiver" style="text;html=1;resizable=0;points=[];autosize=1;align=left;verticalAlign=top;spacingTop=-4;fontSize=30;fontStyle=1" parent="1" vertex="1">
                    <mxGeometry x="56.5" y="64.5" width="520" height="40" as="geometry"/>
                </mxCell>
                <mxCell id="-QjtrjUzRDEMRZ5MF8oH-48" value="v1.0" style="text;html=1;resizable=0;points=[];autosize=1;align=left;verticalAlign=top;spacingTop=-4;fontSize=16;" parent="1" vertex="1">
                    <mxGeometry x="56.5" y="114.5" width="50" height="20" as="geometry"/>
                </mxCell>
                <mxCell id="SCVMTBWpLvtzJIhz15lM-1" value="" style="line;strokeWidth=2;html=1;fontSize=14;" parent="1" vertex="1">
                    <mxGeometry x="52.5" y="139.5" width="1060" height="10" as="geometry"/>
                </mxCell>
                <mxCell id="7OVz4w7n9kzEPWy-4BBC-3" value="" style="rounded=0;whiteSpace=wrap;html=1;fillColor=#EAEDED;fontSize=22;fontColor=#FFFFFF;strokeColor=none;labelBackgroundColor=none;" parent="1" vertex="1">
                    <mxGeometry x="1151" y="51" width="539" height="1220" as="geometry"/>
                </mxCell>
                <mxCell id="7OVz4w7n9kzEPWy-4BBC-4" value="1" style="rounded=1;whiteSpace=wrap;html=1;fillColor=#007CBD;strokeColor=none;fontColor=#FFFFFF;fontStyle=1;fontSize=22;labelBackgroundColor=none;" parent="1" vertex="1">
                    <mxGeometry x="1169" y="63" width="40" height="38" as="geometry"/>
                </mxCell>
                <mxCell id="7OVz4w7n9kzEPWy-4BBC-5" value="2" style="rounded=1;whiteSpace=wrap;html=1;fillColor=#007CBD;strokeColor=none;fontColor=#FFFFFF;fontStyle=1;fontSize=22;labelBackgroundColor=none;" parent="1" vertex="1">
                    <mxGeometry x="1167.5" y="185" width="40" height="38" as="geometry"/>
                </mxCell>
                <mxCell id="7OVz4w7n9kzEPWy-4BBC-6" value="3" style="rounded=1;whiteSpace=wrap;html=1;fillColor=#007CBD;strokeColor=none;fontColor=#FFFFFF;fontStyle=1;fontSize=22;labelBackgroundColor=none;" parent="1" vertex="1">
                    <mxGeometry x="1167.5" y="305" width="40" height="38" as="geometry"/>
                </mxCell>
                <mxCell id="7OVz4w7n9kzEPWy-4BBC-7" value="4" style="rounded=1;whiteSpace=wrap;html=1;fillColor=#007CBD;strokeColor=none;fontColor=#FFFFFF;fontStyle=1;fontSize=22;labelBackgroundColor=none;" parent="1" vertex="1">
                    <mxGeometry x="1167.5" y="419" width="40" height="38" as="geometry"/>
                </mxCell>
                <mxCell id="7OVz4w7n9kzEPWy-4BBC-8" value="5" style="rounded=1;whiteSpace=wrap;html=1;fillColor=#007CBD;strokeColor=none;fontColor=#FFFFFF;fontStyle=1;fontSize=22;labelBackgroundColor=none;" parent="1" vertex="1">
                    <mxGeometry x="1169" y="536" width="40" height="38" as="geometry"/>
                </mxCell>
                <mxCell id="7OVz4w7n9kzEPWy-4BBC-9" value="6" style="rounded=1;whiteSpace=wrap;html=1;fillColor=#007CBD;strokeColor=none;fontColor=#FFFFFF;fontStyle=1;fontSize=22;labelBackgroundColor=none;" parent="1" vertex="1">
                    <mxGeometry x="1170" y="651" width="40" height="38" as="geometry"/>
                </mxCell>
                <mxCell id="7OVz4w7n9kzEPWy-4BBC-10" value="7" style="rounded=1;whiteSpace=wrap;html=1;fillColor=#007CBD;strokeColor=none;fontColor=#FFFFFF;fontStyle=1;fontSize=22;labelBackgroundColor=none;" parent="1" vertex="1">
                    <mxGeometry x="1169.5" y="767" width="40" height="38" as="geometry"/>
                </mxCell>
                <mxCell id="7OVz4w7n9kzEPWy-4BBC-13" value="S3 Put Object API is triggered and recorded by CloudTrail" style="text;html=1;align=left;verticalAlign=top;spacingTop=-4;fontSize=14;labelBackgroundColor=none;whiteSpace=wrap;" parent="1" vertex="1">
                    <mxGeometry x="1220.5" y="62.5" width="449" height="118" as="geometry"/>
                </mxCell>
                <mxCell id="7OVz4w7n9kzEPWy-4BBC-14" value="&lt;span&gt;CloudTrail records the access to the CloudTrail events bucket. To reduce cost the events bucket has a single day lifecycle and is and object placed in it will be purged after 24 hours.&lt;/span&gt;" style="text;html=1;align=left;verticalAlign=top;spacingTop=-4;fontSize=14;labelBackgroundColor=none;whiteSpace=wrap;" parent="1" vertex="1">
                    <mxGeometry x="1219.5" y="185.5" width="450" height="115" as="geometry"/>
                </mxCell>
                <mxCell id="7OVz4w7n9kzEPWy-4BBC-15" value="&lt;span&gt;The S3 event passes through the event bus because it was recorded by CloudTrail.&lt;/span&gt;" style="text;html=1;align=left;verticalAlign=top;spacingTop=-4;fontSize=14;labelBackgroundColor=none;whiteSpace=wrap;" parent="1" vertex="1">
                    <mxGeometry x="1219.5" y="303.5" width="450" height="117" as="geometry"/>
                </mxCell>
                <mxCell id="7OVz4w7n9kzEPWy-4BBC-16" value="The Rule watching the Default EventBus is triggered and sends a notification to the Custom Event Bus in the Logging Account." style="text;html=1;align=left;verticalAlign=top;spacingTop=-4;fontSize=14;labelBackgroundColor=none;whiteSpace=wrap;" parent="1" vertex="1">
                    <mxGeometry x="1219.5" y="419.5" width="450" height="121" as="geometry"/>
                </mxCell>
                <mxCell id="7OVz4w7n9kzEPWy-4BBC-17" value="A Rule watching the Custom Event bus for S3 Put Notifications is triggered. It takes the notification and transforms it into a standard S3 Put notification." style="text;html=1;align=left;verticalAlign=top;spacingTop=-4;fontSize=14;labelBackgroundColor=none;whiteSpace=wrap;" parent="1" vertex="1">
                    <mxGeometry x="1220.5" y="536.5" width="449" height="114" as="geometry"/>
                </mxCell>
                <mxCell id="7OVz4w7n9kzEPWy-4BBC-18" value="&lt;span&gt;The forged notification is passed to the log-loader lambda function. This Lambda function used the notification to consume the log file from the Organization Member Accounts S3 bucket.&lt;/span&gt;" style="text;html=1;align=left;verticalAlign=top;spacingTop=-4;fontSize=14;labelBackgroundColor=none;whiteSpace=wrap;" parent="1" vertex="1">
                    <mxGeometry x="1220.5" y="652.5" width="450" height="118" as="geometry"/>
                </mxCell>
                <mxCell id="7OVz4w7n9kzEPWy-4BBC-19" value="&lt;span&gt;The log file is then loaded into ElasticSearch by the Lambda function.&lt;/span&gt;" style="text;html=1;align=left;verticalAlign=top;spacingTop=-4;fontSize=14;labelBackgroundColor=none;whiteSpace=wrap;" parent="1" vertex="1">
                    <mxGeometry x="1220.5" y="767.5" width="449" height="113" as="geometry"/>
                </mxCell>
                <mxCell id="iJVax760_Z_T7yuUDuWT-1" value="Event Bridge Shipper" style="fillColor=#EFF0F3;strokeColor=none;dashed=0;verticalAlign=top;fontStyle=0;fontColor=#232F3D;" parent="1" vertex="1">
                    <mxGeometry x="240" y="203.5" width="703.5" height="350" as="geometry"/>
                </mxCell>
                <mxCell id="iJVax760_Z_T7yuUDuWT-2" value="Organization Member Account" style="points=[[0,0],[0.25,0],[0.5,0],[0.75,0],[1,0],[1,0.25],[1,0.5],[1,0.75],[1,1],[0.75,1],[0.5,1],[0.25,1],[0,1],[0,0.75],[0,0.5],[0,0.25]];outlineConnect=0;gradientColor=none;html=1;whiteSpace=wrap;fontSize=12;fontStyle=0;shape=mxgraph.aws4.group;grIcon=mxgraph.aws4.group_vpc;strokeColor=#248814;fillColor=none;verticalAlign=top;align=left;spacingLeft=30;fontColor=#AAB7B8;dashed=0;" parent="1" vertex="1">
                    <mxGeometry x="263.5" y="233.5" width="660" height="310" as="geometry"/>
                </mxCell>
                <mxCell id="iJVax760_Z_T7yuUDuWT-3" value="Event Bridge Reciever" style="fillColor=#EFF0F3;strokeColor=none;dashed=0;verticalAlign=top;fontStyle=0;fontColor=#232F3D;" parent="1" vertex="1">
                    <mxGeometry x="240" y="640.5" width="703.5" height="343" as="geometry"/>
                </mxCell>
                <mxCell id="iJVax760_Z_T7yuUDuWT-4" value="Logging Account" style="points=[[0,0],[0.25,0],[0.5,0],[0.75,0],[1,0],[1,0.25],[1,0.5],[1,0.75],[1,1],[0.75,1],[0.5,1],[0.25,1],[0,1],[0,0.75],[0,0.5],[0,0.25]];outlineConnect=0;gradientColor=none;html=1;whiteSpace=wrap;fontSize=12;fontStyle=0;shape=mxgraph.aws4.group;grIcon=mxgraph.aws4.group_vpc;strokeColor=#248814;fillColor=none;verticalAlign=top;align=left;spacingLeft=30;fontColor=#AAB7B8;dashed=0;" parent="1" vertex="1">
                    <mxGeometry x="261.75" y="663.5" width="660" height="310" as="geometry"/>
                </mxCell>
                <mxCell id="iJVax760_Z_T7yuUDuWT-11" style="edgeStyle=orthogonalEdgeStyle;rounded=0;orthogonalLoop=1;jettySize=auto;html=1;" parent="1" source="iJVax760_Z_T7yuUDuWT-28" target="iJVax760_Z_T7yuUDuWT-8" edge="1">
                    <mxGeometry relative="1" as="geometry"/>
                </mxCell>
                <mxCell id="iJVax760_Z_T7yuUDuWT-14" style="edgeStyle=orthogonalEdgeStyle;rounded=0;orthogonalLoop=1;jettySize=auto;html=1;" parent="1" source="iJVax760_Z_T7yuUDuWT-30" target="iJVax760_Z_T7yuUDuWT-13" edge="1">
                    <mxGeometry relative="1" as="geometry">
                        <Array as="points">
                            <mxPoint x="653.5" y="300.5"/>
                            <mxPoint x="653.5" y="300.5"/>
                        </Array>
                    </mxGeometry>
                </mxCell>
                <mxCell id="iJVax760_Z_T7yuUDuWT-6" value="AWS&#10;CloudTrail" style="outlineConnect=0;fontColor=#232F3E;gradientColor=none;strokeColor=#ffffff;fillColor=#232F3E;dashed=0;verticalLabelPosition=middle;verticalAlign=bottom;align=center;html=1;whiteSpace=wrap;fontSize=10;fontStyle=1;spacing=3;shape=mxgraph.aws4.productIcon;prIcon=mxgraph.aws4.cloudtrail;" parent="1" vertex="1">
                    <mxGeometry x="543.5" y="263.5" width="80" height="110" as="geometry"/>
                </mxCell>
                <mxCell id="iJVax760_Z_T7yuUDuWT-9" style="edgeStyle=orthogonalEdgeStyle;rounded=0;orthogonalLoop=1;jettySize=auto;html=1;" parent="1" source="iJVax760_Z_T7yuUDuWT-7" target="iJVax760_Z_T7yuUDuWT-6" edge="1">
                    <mxGeometry relative="1" as="geometry">
                        <mxPoint x="453.5" y="593.5" as="targetPoint"/>
                        <Array as="points">
                            <mxPoint x="323.5" y="303.5"/>
                        </Array>
                    </mxGeometry>
                </mxCell>
                <mxCell id="iJVax760_Z_T7yuUDuWT-10" value="S3 Put object API Call" style="edgeLabel;html=1;align=center;verticalAlign=middle;resizable=0;points=[];" parent="iJVax760_Z_T7yuUDuWT-9" vertex="1" connectable="0">
                    <mxGeometry x="0.4733" y="2" relative="1" as="geometry">
                        <mxPoint x="-41" y="2.5" as="offset"/>
                    </mxGeometry>
                </mxCell>
                <mxCell id="iJVax760_Z_T7yuUDuWT-7" value="Central Logs" style="outlineConnect=0;fontColor=#232F3E;gradientColor=none;strokeColor=#ffffff;fillColor=#232F3E;dashed=0;verticalLabelPosition=middle;verticalAlign=bottom;align=center;html=1;whiteSpace=wrap;fontSize=10;fontStyle=1;spacing=3;shape=mxgraph.aws4.productIcon;prIcon=mxgraph.aws4.s3;" parent="1" vertex="1">
                    <mxGeometry x="283.5" y="424" width="80" height="100" as="geometry"/>
                </mxCell>
                <mxCell id="iJVax760_Z_T7yuUDuWT-8" value="&lt;font style=&quot;font-size: 9px&quot;&gt;Cloudtrail events&lt;/font&gt;" style="outlineConnect=0;fontColor=#232F3E;gradientColor=none;strokeColor=#ffffff;fillColor=#232F3E;dashed=0;verticalLabelPosition=middle;verticalAlign=bottom;align=center;html=1;whiteSpace=wrap;fontSize=10;fontStyle=1;spacing=3;shape=mxgraph.aws4.productIcon;prIcon=mxgraph.aws4.s3;" parent="1" vertex="1">
                    <mxGeometry x="543.5" y="424" width="80" height="100" as="geometry"/>
                </mxCell>
                <mxCell id="iJVax760_Z_T7yuUDuWT-17" style="edgeStyle=orthogonalEdgeStyle;rounded=0;orthogonalLoop=1;jettySize=auto;html=1;" parent="1" source="iJVax760_Z_T7yuUDuWT-32" target="iJVax760_Z_T7yuUDuWT-16" edge="1">
                    <mxGeometry relative="1" as="geometry"/>
                </mxCell>
                <mxCell id="iJVax760_Z_T7yuUDuWT-13" value="Default Event Bus" style="outlineConnect=0;fontColor=#232F3E;gradientColor=none;fillColor=#BC1356;strokeColor=none;dashed=0;verticalLabelPosition=bottom;verticalAlign=top;align=center;html=1;fontSize=12;fontStyle=0;aspect=fixed;pointerEvents=1;shape=mxgraph.aws4.eventbridge_default_event_bus_resource;" parent="1" vertex="1">
                    <mxGeometry x="813.5" y="273.5" width="78" height="53" as="geometry"/>
                </mxCell>
                <mxCell id="iJVax760_Z_T7yuUDuWT-21" style="edgeStyle=orthogonalEdgeStyle;rounded=0;orthogonalLoop=1;jettySize=auto;html=1;" parent="1" source="iJVax760_Z_T7yuUDuWT-34" target="iJVax760_Z_T7yuUDuWT-20" edge="1">
                    <mxGeometry relative="1" as="geometry"/>
                </mxCell>
                <mxCell id="iJVax760_Z_T7yuUDuWT-15" value="Custom Event Bus" style="outlineConnect=0;fontColor=#232F3E;gradientColor=none;fillColor=#BC1356;strokeColor=none;dashed=0;verticalLabelPosition=bottom;verticalAlign=top;align=center;html=1;fontSize=12;fontStyle=0;aspect=fixed;pointerEvents=1;shape=mxgraph.aws4.eventbridge_custom_event_bus_resource;" parent="1" vertex="1">
                    <mxGeometry x="813.5" y="713.5" width="78" height="69" as="geometry"/>
                </mxCell>
                <mxCell id="iJVax760_Z_T7yuUDuWT-18" style="edgeStyle=orthogonalEdgeStyle;rounded=0;orthogonalLoop=1;jettySize=auto;html=1;" parent="1" source="iJVax760_Z_T7yuUDuWT-16" target="iJVax760_Z_T7yuUDuWT-15" edge="1">
                    <mxGeometry relative="1" as="geometry"/>
                </mxCell>
                <mxCell id="iJVax760_Z_T7yuUDuWT-39" value="Forward Event" style="edgeLabel;html=1;align=center;verticalAlign=middle;resizable=0;points=[];" parent="iJVax760_Z_T7yuUDuWT-18" vertex="1" connectable="0">
                    <mxGeometry x="0.0131" y="-2" relative="1" as="geometry">
                        <mxPoint y="1" as="offset"/>
                    </mxGeometry>
                </mxCell>
                <mxCell id="iJVax760_Z_T7yuUDuWT-16" value="Rule" style="outlineConnect=0;fontColor=#232F3E;gradientColor=none;strokeColor=#232F3E;fillColor=#ffffff;dashed=0;verticalLabelPosition=bottom;verticalAlign=top;align=center;html=1;fontSize=12;fontStyle=0;aspect=fixed;shape=mxgraph.aws4.resourceIcon;resIcon=mxgraph.aws4.rule_2;" parent="1" vertex="1">
                    <mxGeometry x="822.5" y="433.5" width="60" height="60" as="geometry"/>
                </mxCell>
                <mxCell id="iJVax760_Z_T7yuUDuWT-23" style="edgeStyle=orthogonalEdgeStyle;rounded=0;orthogonalLoop=1;jettySize=auto;html=1;" parent="1" source="iJVax760_Z_T7yuUDuWT-36" target="iJVax760_Z_T7yuUDuWT-22" edge="1">
                    <mxGeometry relative="1" as="geometry"/>
                </mxCell>
                <mxCell id="iJVax760_Z_T7yuUDuWT-20" value="Rule" style="outlineConnect=0;fontColor=#232F3E;gradientColor=none;strokeColor=#232F3E;fillColor=#ffffff;dashed=0;verticalLabelPosition=bottom;verticalAlign=top;align=center;html=1;fontSize=12;fontStyle=0;aspect=fixed;shape=mxgraph.aws4.resourceIcon;resIcon=mxgraph.aws4.rule_2;" parent="1" vertex="1">
                    <mxGeometry x="553.5" y="718" width="60" height="60" as="geometry"/>
                </mxCell>
                <mxCell id="iJVax760_Z_T7yuUDuWT-24" style="edgeStyle=orthogonalEdgeStyle;rounded=0;orthogonalLoop=1;jettySize=auto;html=1;" parent="1" source="iJVax760_Z_T7yuUDuWT-22" target="iJVax760_Z_T7yuUDuWT-7" edge="1">
                    <mxGeometry relative="1" as="geometry"/>
                </mxCell>
                <mxCell id="iJVax760_Z_T7yuUDuWT-38" value="Download Log File" style="edgeLabel;html=1;align=center;verticalAlign=middle;resizable=0;points=[];" parent="iJVax760_Z_T7yuUDuWT-24" vertex="1" connectable="0">
                    <mxGeometry x="0.046" y="-1" relative="1" as="geometry">
                        <mxPoint x="1" as="offset"/>
                    </mxGeometry>
                </mxCell>
                <mxCell id="iJVax760_Z_T7yuUDuWT-26" style="edgeStyle=orthogonalEdgeStyle;rounded=0;orthogonalLoop=1;jettySize=auto;html=1;" parent="1" source="iJVax760_Z_T7yuUDuWT-40" target="iJVax760_Z_T7yuUDuWT-25" edge="1">
                    <mxGeometry relative="1" as="geometry">
                        <Array as="points">
                            <mxPoint x="324" y="904"/>
                        </Array>
                    </mxGeometry>
                </mxCell>
                <mxCell id="iJVax760_Z_T7yuUDuWT-22" value="AWS Lambda" style="outlineConnect=0;fontColor=#232F3E;gradientColor=none;strokeColor=#ffffff;fillColor=#232F3E;dashed=0;verticalLabelPosition=middle;verticalAlign=bottom;align=center;html=1;whiteSpace=wrap;fontSize=10;fontStyle=1;spacing=3;shape=mxgraph.aws4.productIcon;prIcon=mxgraph.aws4.lambda;" parent="1" vertex="1">
                    <mxGeometry x="283.5" y="698" width="80" height="100" as="geometry"/>
                </mxCell>
                <mxCell id="iJVax760_Z_T7yuUDuWT-25" value="Amazon Elasticsearch Service" style="outlineConnect=0;fontColor=#232F3E;gradientColor=none;strokeColor=#ffffff;fillColor=#232F3E;dashed=0;verticalLabelPosition=middle;verticalAlign=bottom;align=center;html=1;whiteSpace=wrap;fontSize=10;fontStyle=1;spacing=3;shape=mxgraph.aws4.productIcon;prIcon=mxgraph.aws4.elasticsearch_service;" parent="1" vertex="1">
                    <mxGeometry x="553.5" y="844" width="80" height="120" as="geometry"/>
                </mxCell>
                <mxCell id="iJVax760_Z_T7yuUDuWT-27" value="1" style="rounded=1;whiteSpace=wrap;html=1;fillColor=#007CBD;strokeColor=none;fontColor=#FFFFFF;fontStyle=1;fontSize=22;labelBackgroundColor=none;" parent="1" vertex="1">
                    <mxGeometry x="303.5" y="335.5" width="40" height="38" as="geometry"/>
                </mxCell>
                <mxCell id="iJVax760_Z_T7yuUDuWT-29" style="edgeStyle=orthogonalEdgeStyle;rounded=0;orthogonalLoop=1;jettySize=auto;html=1;" parent="1" source="iJVax760_Z_T7yuUDuWT-6" target="iJVax760_Z_T7yuUDuWT-28" edge="1">
                    <mxGeometry relative="1" as="geometry">
                        <mxPoint x="583.5" y="373.5" as="sourcePoint"/>
                        <mxPoint x="583.5" y="424" as="targetPoint"/>
                    </mxGeometry>
                </mxCell>
                <mxCell id="iJVax760_Z_T7yuUDuWT-30" value="3" style="rounded=1;whiteSpace=wrap;html=1;fillColor=#007CBD;strokeColor=none;fontColor=#FFFFFF;fontStyle=1;fontSize=22;labelBackgroundColor=none;" parent="1" vertex="1">
                    <mxGeometry x="700" y="281" width="40" height="38" as="geometry"/>
                </mxCell>
                <mxCell id="iJVax760_Z_T7yuUDuWT-31" style="edgeStyle=orthogonalEdgeStyle;rounded=0;orthogonalLoop=1;jettySize=auto;html=1;" parent="1" source="iJVax760_Z_T7yuUDuWT-6" target="iJVax760_Z_T7yuUDuWT-30" edge="1">
                    <mxGeometry relative="1" as="geometry">
                        <mxPoint x="623.5" y="300.5" as="sourcePoint"/>
                        <mxPoint x="813.6333333333332" y="300.5" as="targetPoint"/>
                        <Array as="points">
                            <mxPoint x="640" y="300"/>
                            <mxPoint x="640" y="300"/>
                        </Array>
                    </mxGeometry>
                </mxCell>
                <mxCell id="iJVax760_Z_T7yuUDuWT-32" value="4" style="rounded=1;whiteSpace=wrap;html=1;fillColor=#007CBD;strokeColor=none;fontColor=#FFFFFF;fontStyle=1;fontSize=22;labelBackgroundColor=none;" parent="1" vertex="1">
                    <mxGeometry x="832.5" y="359.5" width="40" height="38" as="geometry"/>
                </mxCell>
                <mxCell id="iJVax760_Z_T7yuUDuWT-33" style="edgeStyle=orthogonalEdgeStyle;rounded=0;orthogonalLoop=1;jettySize=auto;html=1;" parent="1" source="iJVax760_Z_T7yuUDuWT-13" target="iJVax760_Z_T7yuUDuWT-32" edge="1">
                    <mxGeometry relative="1" as="geometry">
                        <mxPoint x="852.5" y="326.5" as="sourcePoint"/>
                        <mxPoint x="852.5" y="433.5" as="targetPoint"/>
                    </mxGeometry>
                </mxCell>
                <mxCell id="iJVax760_Z_T7yuUDuWT-34" value="5" style="rounded=1;whiteSpace=wrap;html=1;fillColor=#007CBD;strokeColor=none;fontColor=#FFFFFF;fontStyle=1;fontSize=22;labelBackgroundColor=none;" parent="1" vertex="1">
                    <mxGeometry x="700" y="729" width="40" height="38" as="geometry"/>
                </mxCell>
                <mxCell id="iJVax760_Z_T7yuUDuWT-35" style="edgeStyle=orthogonalEdgeStyle;rounded=0;orthogonalLoop=1;jettySize=auto;html=1;" parent="1" source="iJVax760_Z_T7yuUDuWT-15" target="iJVax760_Z_T7yuUDuWT-34" edge="1">
                    <mxGeometry relative="1" as="geometry">
                        <mxPoint x="813.5" y="748" as="sourcePoint"/>
                        <mxPoint x="613.5" y="748" as="targetPoint"/>
                    </mxGeometry>
                </mxCell>
                <mxCell id="iJVax760_Z_T7yuUDuWT-36" value="6" style="rounded=1;whiteSpace=wrap;html=1;fillColor=#007CBD;strokeColor=none;fontColor=#FFFFFF;fontStyle=1;fontSize=22;labelBackgroundColor=none;" parent="1" vertex="1">
                    <mxGeometry x="430" y="729" width="40" height="38" as="geometry"/>
                </mxCell>
                <mxCell id="iJVax760_Z_T7yuUDuWT-37" style="edgeStyle=orthogonalEdgeStyle;rounded=0;orthogonalLoop=1;jettySize=auto;html=1;" parent="1" source="iJVax760_Z_T7yuUDuWT-20" target="iJVax760_Z_T7yuUDuWT-36" edge="1">
                    <mxGeometry relative="1" as="geometry">
                        <mxPoint x="553.5" y="748" as="sourcePoint"/>
                        <mxPoint x="363.5" y="748" as="targetPoint"/>
                    </mxGeometry>
                </mxCell>
                <mxCell id="iJVax760_Z_T7yuUDuWT-40" value="7" style="rounded=1;whiteSpace=wrap;html=1;fillColor=#007CBD;strokeColor=none;fontColor=#FFFFFF;fontStyle=1;fontSize=22;labelBackgroundColor=none;" parent="1" vertex="1">
                    <mxGeometry x="303.5" y="880.5" width="40" height="38" as="geometry"/>
                </mxCell>
                <mxCell id="iJVax760_Z_T7yuUDuWT-41" style="edgeStyle=orthogonalEdgeStyle;rounded=0;orthogonalLoop=1;jettySize=auto;html=1;" parent="1" source="iJVax760_Z_T7yuUDuWT-22" target="iJVax760_Z_T7yuUDuWT-40" edge="1">
                    <mxGeometry relative="1" as="geometry">
                        <mxPoint x="323.5" y="798" as="sourcePoint"/>
                        <mxPoint x="553.5" y="904" as="targetPoint"/>
                        <Array as="points"/>
                    </mxGeometry>
                </mxCell>
                <mxCell id="iJVax760_Z_T7yuUDuWT-28" value="2" style="rounded=1;whiteSpace=wrap;html=1;fillColor=#007CBD;strokeColor=none;fontColor=#FFFFFF;fontStyle=1;fontSize=22;labelBackgroundColor=none;" parent="1" vertex="1">
                    <mxGeometry x="562.5" y="373.5" width="40" height="38" as="geometry"/>
                </mxCell>
            </root>
        </mxGraphModel>
    </diagram>
</mxfile>